<?xml version="1.0" ?><svg xmlns="http://www.w3.org/2000/svg" xmlns:xlink="http://www.w3.org/1999/xlink" version="1.0" viewBox="0 0 48 48" enable-background="new 0 0 48 48" xml:space="preserve"><g id="Layer_1"/><g id="_x38__x5F_Handshake"><path d="M10.343,22.515l9.671-9.671c1.17-1.169,1.17-3.073,0-4.243l-1.414-1.414c-1.17-1.17-3.073-1.17-4.243,0l-9.671,9.671   c-1.17,1.169-1.17,3.073,0,4.243l1.414,1.414c0.585,0.585,1.353,0.877,2.122,0.877C8.99,23.392,9.758,23.1,10.343,22.515z    M7.515,21.101l-1.414-1.414c-0.39-0.39-0.39-1.024,0-1.415l9.671-9.671c0.195-0.195,0.451-0.292,0.707-0.292   c0.256,0,0.513,0.098,0.708,0.292l1.414,1.414c0.39,0.39,0.39,1.024,0,1.415l-9.671,9.671C8.539,21.49,7.903,21.489,7.515,21.101z    M37.957,30.229c0.58,0.579,0.893,1.333,0.893,2.135c0,0.801-0.313,1.555-0.879,2.121c-0.529,0.529-1.224,0.826-1.967,0.864   c-0.037,0.715-0.318,1.419-0.862,1.964c-0.565,0.566-1.319,0.879-2.121,0.879c-0.224,0-0.443-0.03-0.657-0.078   c-0.136,0.493-0.386,0.95-0.757,1.321c-0.585,0.584-1.353,0.876-2.121,0.876c-0.221,0-0.441-0.031-0.658-0.08   c-0.133,0.484-0.376,0.945-0.755,1.325c-0.586,0.584-1.354,0.877-2.123,0.877c-0.768,0-1.536-0.292-2.121-0.877   c-0.391-0.39-0.391-1.023,0-1.414c0.391-0.391,1.023-0.391,1.414,0c0.391,0.389,1.024,0.391,1.415-0.001   c0.39-0.389,0.39-1.024-0.001-1.414l-1.413-1.414c-0.391-0.391-0.391-1.023,0-1.414s1.023-0.391,1.414,0l1.414,1.414l0.707,0.707   c0.391,0.391,1.023,0.391,1.414,0c0.189-0.189,0.293-0.439,0.293-0.707c0-0.267-0.104-0.518-0.293-0.707l-2.121-2.121l-0.778-0.778   c-0.391-0.391-0.391-1.023,0-1.414s1.023-0.391,1.414,0l0.778,0.778l2.121,2.121l0.707,0.707c0.379,0.378,1.036,0.379,1.413,0   c0.391-0.39,0.391-1.024,0.001-1.414l-2.828-2.828l-1.778-1.778c-0.391-0.391-0.391-1.023,0-1.414s1.023-0.391,1.414,0l1.778,1.778   l2.828,2.828c0.392,0.392,1.024,0.389,1.415,0c0.188-0.189,0.293-0.44,0.293-0.707c0-0.268-0.104-0.518-0.293-0.706l-8.25-7.938   c-0.398-0.383-0.41-1.016-0.027-1.414s1.016-0.41,1.414-0.027L37.957,30.229z M21.095,33.724c0.047-0.213,0.077-0.43,0.077-0.653   c0-0.802-0.312-1.555-0.878-2.121c-0.387-0.387-0.857-0.634-1.351-0.765c0.188-0.822,0.052-1.697-0.448-2.391   c-0.52-0.723-1.322-1.178-2.2-1.249c-0.034-0.003-0.068,0.005-0.102,0.003c-0.021-0.562-0.189-1.114-0.526-1.583   c-0.52-0.722-1.322-1.177-2.201-1.249c-0.88-0.07-1.741,0.246-2.364,0.869l-2.121,2.121c-0.567,0.566-0.879,1.32-0.879,2.121   c0,0.802,0.313,1.556,0.878,2.121c0.53,0.529,1.224,0.826,1.966,0.864c0.037,0.715,0.317,1.42,0.862,1.965   c0.545,0.545,1.251,0.825,1.966,0.862c0.037,0.715,0.317,1.421,0.862,1.966c0.529,0.529,1.224,0.825,1.966,0.864   c0.038,0.742,0.334,1.436,0.863,1.964c0.585,0.585,1.353,0.877,2.122,0.877c0.768,0,1.536-0.292,2.121-0.877l0.632-0.631   c1.071-1.072,1.243-2.766,0.398-3.938C22.33,34.3,21.748,33.906,21.095,33.724z M10.101,28.828c0-0.267,0.104-0.518,0.293-0.707   L12.515,26c0.188-0.188,0.443-0.293,0.708-0.293c0.027,0,0.054,0.001,0.082,0.003c0.297,0.024,0.56,0.175,0.739,0.425   c0.274,0.379,0.19,0.974-0.188,1.354l-2.048,2.047c-0.377,0.379-1.035,0.38-1.414-0.001C10.205,29.346,10.101,29.096,10.101,28.828   z M13.222,30.949l2.046-2.045c0.002-0.002,0.003-0.004,0.005-0.006l0.07-0.07c0.188-0.188,0.443-0.293,0.708-0.293   c0.027,0,0.054,0.001,0.082,0.004c0.297,0.023,0.56,0.174,0.739,0.423c0.274,0.381,0.191,0.977-0.189,1.356l-2.045,2.046   c-0.39,0.39-1.024,0.392-1.414,0C12.832,31.975,12.832,31.339,13.222,30.949z M16.05,33.778l1.414-1.414   c0.195-0.195,0.451-0.292,0.707-0.292c0.256,0,0.513,0.098,0.708,0.292c0.189,0.188,0.292,0.439,0.292,0.707   c0,0.267-0.104,0.519-0.292,0.707l-1.415,1.414c-0.377,0.379-1.036,0.379-1.414,0C15.661,34.803,15.661,34.168,16.05,33.778z    M20.924,37.39l-0.631,0.631c-0.377,0.376-1.037,0.378-1.415,0c-0.189-0.188-0.292-0.439-0.292-0.707   c0-0.267,0.104-0.519,0.292-0.707l0.708-0.707c0.188-0.188,0.442-0.293,0.707-0.293c0.027,0,0.054,0.001,0.081,0.003   c0.297,0.024,0.56,0.175,0.739,0.424C21.387,36.414,21.304,37.01,20.924,37.39z M43.313,16.858l-9.171-9.171   c-1.132-1.133-3.109-1.135-4.243,0l-1.414,1.414c-0.798,0.798-1.038,1.935-0.747,2.95H24.87c-0.794,0-1.542,0.307-2.106,0.864   l-4.95,4.88c-0.595,0.587-0.925,1.37-0.928,2.207c-0.003,0.835,0.321,1.622,0.912,2.212c0.607,0.607,1.404,0.911,2.201,0.911   s1.594-0.304,2.201-0.911l1.92-1.92C24.31,20.104,24.562,20,24.829,20H29c0.553,0,1-0.448,1-1s-0.447-1-1-1h-4.171   c-0.801,0-1.555,0.312-2.122,0.879l-1.92,1.92c-0.435,0.434-1.14,0.434-1.574,0c-0.211-0.211-0.327-0.493-0.326-0.792   c0.001-0.299,0.119-0.58,0.332-0.79l4.95-4.88c0.188-0.186,0.437-0.288,0.701-0.288h4.322l7.812,7.812l-0.974,3.896   c-0.135,0.535,0.191,1.078,0.728,1.212C36.839,26.99,36.921,27,37.001,27c0.448,0,0.855-0.303,0.969-0.758l0.761-3.045   c0.331,0.124,0.683,0.196,1.047,0.196c0.801,0,1.555-0.312,2.121-0.879l1.414-1.414C44.483,19.931,44.483,18.027,43.313,16.858z    M41.899,19.687l-1.414,1.414c-0.379,0.379-1.035,0.377-1.414,0l-8.757-8.757c0,0-0.001-0.001-0.001-0.001l-0.413-0.413   c-0.39-0.39-0.39-1.024,0-1.415l1.414-1.414c0.189-0.189,0.44-0.293,0.707-0.293c0.268,0,0.518,0.104,0.707,0.293l9.172,9.171   C42.289,18.662,42.289,19.296,41.899,19.687z"/></g></svg>